<svg width="1280" height="744" viewBox="0 0 1280 744" fill="none" xmlns="http://www.w3.org/2000/svg">
<g clip-path="url(#clip0_1_686)">
<g opacity="0.07">
<rect width="1280" height="743.75" fill="url(#paint0_linear_1_686)"/>
<rect width="1280" height="743.75" fill="url(#paint1_linear_1_686)"/>
</g>
<g filter="url(#filter0_f_1_686)">
<rect x="-150" y="71.88" width="600" height="600" rx="300" fill="#76B900" fill-opacity="0.1"/>
</g>
<g filter="url(#filter1_f_1_686)">
<rect x="680" y="-200" width="800" height="800" rx="400" fill="url(#paint2_linear_1_686)"/>
</g>
<g clip-path="url(#clip1_1_686)">
<path d="M0 161.55C256 107.7 469.333 188.475 640 403.875C810.667 619.275 1024 700.05 1280 646.2" stroke="#76B900" stroke-width="2.08775"/>
<path d="M0 403.875C341.333 350.025 597.333 376.95 768 484.65C938.667 592.35 1109.33 511.575 1280 242.325" stroke="#76B900" stroke-width="1.04387"/>
<path opacity="0.5" d="M1280 80.775C1024 242.325 725.333 376.95 384 484.65C42.6667 592.35 -85.3333 673.125 0 726.975" stroke="#76B900" stroke-width="1.56581"/>
</g>
<rect x="1088.5" y="121.66" width="127" height="127" rx="63.5" stroke="#76B900" stroke-opacity="0.2"/>
<rect x="1152" y="96.7671" width="125" height="125" rx="62.5" transform="rotate(45 1152 96.7671)" stroke="#76B900" stroke-opacity="0.1"/>
<rect x="1063.61" y="185.16" width="125" height="125" rx="62.5" transform="rotate(-45 1063.61 185.16)" stroke="#76B900" stroke-opacity="0.1"/>
<rect opacity="0.3" x="576.5" y="599.48" width="63" height="63" rx="31.5" stroke="white" stroke-opacity="0.1"/>
</g>
<defs>
<filter id="filter0_f_1_686" x="-270" y="-48.12" width="840" height="840" filterUnits="userSpaceOnUse" color-interpolation-filters="sRGB">
<feFlood flood-opacity="0" result="BackgroundImageFix"/>
<feBlend mode="normal" in="SourceGraphic" in2="BackgroundImageFix" result="shape"/>
<feGaussianBlur stdDeviation="60" result="effect1_foregroundBlur_1_686"/>
</filter>
<filter id="filter1_f_1_686" x="580" y="-300" width="1000" height="1000" filterUnits="userSpaceOnUse" color-interpolation-filters="sRGB">
<feFlood flood-opacity="0" result="BackgroundImageFix"/>
<feBlend mode="normal" in="SourceGraphic" in2="BackgroundImageFix" result="shape"/>
<feGaussianBlur stdDeviation="50" result="effect1_foregroundBlur_1_686"/>
</filter>
<linearGradient id="paint0_linear_1_686" x1="640" y1="0" x2="640" y2="743.75" gradientUnits="userSpaceOnUse">
<stop offset="0.025" stop-color="#222222"/>
<stop offset="0.025" stop-color="#222222" stop-opacity="0"/>
</linearGradient>
<linearGradient id="paint1_linear_1_686" x1="0" y1="371.875" x2="1280" y2="371.875" gradientUnits="userSpaceOnUse">
<stop offset="0.025" stop-color="#222222"/>
<stop offset="0.025" stop-color="#222222" stop-opacity="0"/>
</linearGradient>
<linearGradient id="paint2_linear_1_686" x1="680" y1="-200" x2="1480" y2="600" gradientUnits="userSpaceOnUse">
<stop stop-color="#76B900" stop-opacity="0.05"/>
<stop offset="1" stop-color="#76B900" stop-opacity="0"/>
</linearGradient>
<clipPath id="clip0_1_686">
<rect width="1280" height="743.75" fill="white"/>
</clipPath>
<clipPath id="clip1_1_686">
<rect width="1280" height="807.75" fill="white"/>
</clipPath>
</defs>
</svg>
