<svg width="560" height="436" viewBox="0 0 560 436" fill="none" xmlns="http://www.w3.org/2000/svg">
<foreignObject x="0" y="0" width="560" height="436"><div xmlns="http://www.w3.org/1999/xhtml" style="backdrop-filter:blur(8px);clip-path:url(#bgblur_0_1_726_clip_path);height:100%;width:100%"></div></foreignObject><g filter="url(#filter0_d_1_726)" data-figma-bg-blur-radius="16">
<rect x="32" y="24" width="496" height="372" rx="16" fill="white" fill-opacity="0.05" shape-rendering="crispEdges"/>
<rect x="32.5" y="24.5" width="495" height="371" rx="15.5" stroke="white" stroke-opacity="0.1" shape-rendering="crispEdges"/>
<mask id="path-3-inside-1_1_726" fill="white">
<path d="M49 41H511V70H49V41Z"/>
</mask>
<path d="M511 70V69H49V70V71H511V70Z" fill="white" fill-opacity="0.1" mask="url(#path-3-inside-1_1_726)"/>
<rect x="49" y="41" width="12" height="12" rx="6" fill="#EF4444" fill-opacity="0.8"/>
<rect x="69" y="41" width="12" height="12" rx="6" fill="#EAB308" fill-opacity="0.8"/>
<rect x="89" y="41" width="12" height="12" rx="6" fill="#22C55E" fill-opacity="0.8"/>
<rect x="431" y="43" width="80" height="8" rx="4" fill="white" fill-opacity="0.1"/>
<rect x="47" y="86" width="104.5" height="293" rx="8" fill="white" fill-opacity="0.05"/>
<rect x="55" y="94" width="88.5" height="8" rx="4" fill="white" fill-opacity="0.1"/>
<rect x="55" y="110" width="59" height="8" rx="4" fill="white" fill-opacity="0.1"/>
<rect x="55" y="339" width="88.5" height="32" rx="4" fill="#76B900" fill-opacity="0.2"/>
<rect x="55.5" y="339.5" width="87.5" height="31" rx="3.5" stroke="#76B900" stroke-opacity="0.3"/>
<rect x="167.5" y="86" width="345.5" height="84.7" rx="8" fill="url(#paint0_linear_1_726)"/>
<rect x="168" y="86.5" width="344.5" height="83.7" rx="7.5" stroke="white" stroke-opacity="0.05"/>
<g clip-path="url(#clip1_1_726)">
<path d="M168.5 169.7L202.85 153.7L237.2 163.3L271.55 137.7L305.9 144.1L340.25 121.7L374.6 131.3L408.95 112.1L443.3 121.7L477.65 137.7L512 105.7V169.7H168.5Z" fill="#76B900" fill-opacity="0.2"/>
<path d="M168.5 169.7L202.85 153.7L237.2 163.3L271.55 137.7L305.9 144.1L340.25 121.7L374.6 131.3L408.95 112.1L443.3 121.7L477.65 137.7L512 105.7" stroke="#76B900" stroke-width="1.65875"/>
</g>
<rect x="167.5" y="186.7" width="164.75" height="192.3" rx="8" fill="white" fill-opacity="0.05"/>
<rect x="168" y="187.2" width="163.75" height="191.3" rx="7.5" stroke="white" stroke-opacity="0.05"/>
<rect x="348.25" y="186.7" width="164.75" height="192.3" rx="8" fill="white" fill-opacity="0.05"/>
<rect x="348.75" y="187.2" width="163.75" height="191.3" rx="7.5" stroke="white" stroke-opacity="0.05"/>
</g>
<defs>
<filter id="filter0_d_1_726" x="0" y="0" width="560" height="436" filterUnits="userSpaceOnUse" color-interpolation-filters="sRGB">
<feFlood flood-opacity="0" result="BackgroundImageFix"/>
<feColorMatrix in="SourceAlpha" type="matrix" values="0 0 0 0 0 0 0 0 0 0 0 0 0 0 0 0 0 0 127 0" result="hardAlpha"/>
<feOffset dy="8"/>
<feGaussianBlur stdDeviation="16"/>
<feComposite in2="hardAlpha" operator="out"/>
<feColorMatrix type="matrix" values="0 0 0 0 0 0 0 0 0 0 0 0 0 0 0 0 0 0 0.36 0"/>
<feBlend mode="normal" in2="BackgroundImageFix" result="effect1_dropShadow_1_726"/>
<feBlend mode="normal" in="SourceGraphic" in2="effect1_dropShadow_1_726" result="shape"/>
</filter>
<clipPath id="bgblur_0_1_726_clip_path" transform="translate(0 0)"><rect x="32" y="24" width="496" height="372" rx="16"/>
</clipPath><linearGradient id="paint0_linear_1_726" x1="321.321" y1="48.2906" x2="360.495" y2="208.087" gradientUnits="userSpaceOnUse">
<stop stop-color="white" stop-opacity="0.1"/>
<stop offset="1" stop-color="white" stop-opacity="0"/>
</linearGradient>
<clipPath id="clip1_1_726">
<rect width="343.5" height="64" fill="white" transform="translate(168.5 105.7)"/>
</clipPath>
</defs>
</svg>
